<svg width="133" height="34" viewBox="0 0 133 34" fill="none" xmlns="http://www.w3.org/2000/svg">
<path d="M86.2627 16.1458H90.9234V19.1986H90.9924C91.1996 18.7216 91.5103 18.2446 91.9246 17.7994C92.3043 17.3542 92.7531 17.0044 93.271 16.6864C93.7543 16.3684 94.3067 16.1458 94.8936 15.955C95.446 15.796 96.0674 15.7324 96.6888 15.7006C96.9995 15.7006 97.3448 15.7642 97.7591 15.8596V20.0572C97.5174 20.0254 97.2412 19.9936 96.9305 19.9618C96.5853 19.93 96.2745 19.8982 95.9984 19.8982C95.1007 19.8982 94.3412 20.0572 93.7198 20.3116C93.0984 20.5978 92.5805 20.9794 92.2008 21.4564C91.821 21.9334 91.5448 22.474 91.4067 23.11C91.2341 23.746 91.165 24.4456 91.165 25.177V32.6607H86.2627V16.1458Z" fill="#10239E"/>
<path d="M79.6615 22.6012C79.4198 21.4564 79.0055 20.5978 78.4186 19.9936C77.8317 19.4212 76.9341 19.135 75.7603 19.1032C74.9663 19.1032 74.3103 19.2304 73.7925 19.4848C73.2746 19.7392 72.8603 20.0254 72.5496 20.3752C72.2389 20.7568 72.0318 21.1384 71.8937 21.52C71.7556 21.9334 71.6865 22.2832 71.6865 22.6012H79.6615ZM71.6865 25.4632C71.7556 26.926 72.1353 28.0072 72.8949 28.6433C73.6199 29.3111 74.6901 29.6291 76.071 29.6291C77.0377 29.6291 77.9008 29.4065 78.6258 28.9613C79.3162 28.5161 79.7651 28.0072 79.9377 27.4984H84.2531C83.5627 29.4701 82.4924 30.9011 81.077 31.7279C79.627 32.5865 77.9008 32.9999 75.8984 32.9999C74.4829 32.9999 73.2056 32.8091 72.1008 32.3957C70.9615 31.9823 69.9949 31.3781 69.2354 30.6149C68.4413 29.8517 67.8199 28.9613 67.4056 27.88C66.9913 26.8306 66.7842 25.654 66.7842 24.382C66.7842 23.1736 66.9913 22.0288 67.4401 20.9476C67.8544 19.8982 68.4758 18.976 69.3044 18.2128C70.0984 17.4496 71.0651 16.8136 72.1699 16.3684C73.2746 15.9232 74.5175 15.7006 75.8984 15.7006C77.4175 15.7006 78.7293 15.9868 79.8686 16.5274C80.9734 17.068 81.9055 17.7994 82.6305 18.6898C83.3555 19.612 83.8734 20.6614 84.2186 21.8062C84.5293 22.9828 84.6329 24.1912 84.5638 25.4632H71.6865Z" fill="#10239E"/>
<path d="M60.7615 32.6607H55.3068L49.2275 16.1458H54.3716L58.1346 27.3712H58.2037L61.9667 16.1458H66.8346L60.7615 32.6607Z" fill="#10239E"/>
<path d="M44.3177 22.6012C44.0761 21.4564 43.6618 20.5978 43.0749 19.9936C42.488 19.4212 41.5904 19.135 40.4166 19.1032C39.6225 19.1032 38.9666 19.2304 38.4487 19.4848C37.9309 19.7392 37.5166 20.0254 37.2059 20.3752C36.8952 20.7568 36.688 21.1384 36.5499 21.52C36.4118 21.9334 36.3428 22.2832 36.3428 22.6012H44.3177ZM36.3428 25.4632C36.4118 26.926 36.7916 28.0072 37.5511 28.6433C38.2761 29.3111 39.3463 29.6291 40.7273 29.6291C41.6939 29.6291 42.557 29.4065 43.282 28.9613C43.9725 28.5161 44.4213 28.0072 44.5939 27.4984H48.9094C48.2189 29.4701 47.1487 30.9011 45.7332 31.7279C44.2832 32.5865 42.557 32.9999 40.5547 32.9999C39.1392 32.9999 37.8618 32.8091 36.7571 32.3957C35.6178 31.9823 34.6511 31.3781 33.8916 30.6149C33.0976 29.8517 32.4761 28.9613 32.0619 27.88C31.6476 26.8306 31.4404 25.654 31.4404 24.382C31.4404 23.1736 31.6476 22.0288 32.0964 20.9476C32.5107 19.8982 33.1321 18.976 33.9607 18.2128C34.7547 17.4496 35.7214 16.8136 36.8261 16.3684C37.9309 15.9232 39.1737 15.7006 40.5547 15.7006C42.0737 15.7006 43.3856 15.9868 44.5249 16.5274C45.6296 17.068 46.5618 17.7994 47.2868 18.6898C48.0118 19.612 48.5296 20.6614 48.8748 21.8062C49.1856 22.9828 49.2891 24.1912 49.2201 25.4632H36.3428Z" fill="#10239E"/>
<path d="M24.8569 9.12854H29.6902V32.6607H24.8569V9.12854Z" fill="#10239E"/>
<path d="M17.5473 17.2246C17.4435 16.6576 17.2358 16.1535 16.9243 15.681C16.5782 15.2085 16.1975 14.7989 15.713 14.4209C15.2285 14.0744 14.6747 13.7909 14.0517 13.6019C13.4287 13.4128 12.8057 13.3183 12.1482 13.2868C10.9022 13.2868 9.86388 13.5073 9.03324 13.9484C8.16799 14.3894 7.47579 14.9565 6.95663 15.681C6.40287 16.4056 6.02216 17.2246 5.77989 18.1382C5.53762 19.0832 5.43379 20.0283 5.43379 21.0049C5.43379 21.9499 5.53762 22.895 5.77989 23.7771C6.02216 24.6591 6.40287 25.4782 6.95663 26.1712C7.47579 26.8958 8.16799 27.4628 9.03324 27.9039C9.86388 28.3449 10.9022 28.5339 12.1482 28.5339C13.8094 28.5339 15.09 28.0929 16.0245 27.1478C16.959 26.2342 17.5473 25.0057 17.755 23.4936H23.0157C22.8773 24.9112 22.4966 26.1712 21.9428 27.3053C21.3544 28.4394 20.593 29.416 19.6585 30.2035C18.6895 31.0226 17.5819 31.6211 16.336 32.0307C15.0554 32.4717 13.671 32.6607 12.1482 32.6607C10.2446 32.6607 8.5487 32.3772 7.02585 31.7786C5.50301 31.1801 4.25704 30.361 3.21874 29.29C2.18044 28.2504 1.3844 27.0218 0.830643 25.6042C0.276881 24.1866 0 22.643 0 21.0049C0 19.3353 0.276881 17.7917 0.830643 16.3425C1.3844 14.8934 2.18044 13.6334 3.21874 12.5623C4.25704 11.5227 5.50301 10.6721 7.02585 10.0421C8.5487 9.44356 10.2446 9.16004 12.1482 9.12854C13.4979 9.12854 14.7785 9.31755 15.9899 9.66408C17.2012 10.0421 18.2741 10.5461 19.2432 11.2392C20.2123 11.9322 21.0083 12.7513 21.6313 13.7594C22.2543 14.7674 22.635 15.933 22.8081 17.2246H17.5473Z" fill="#10239E"/>
<path d="M127.752 11.2547H131.995V15.8165H127.752V24.5335C127.752 27.5003 127.936 27.4915 128.305 27.839C128.673 28.1866 129.409 28.3604 130.514 28.3604C130.882 28.4038 131.205 28.3604 131.573 28.3169C131.895 28.3169 132.34 28.0708 132.57 27.839V32.6181C131.995 32.8633 131.343 33.1394 130.698 33.1394C130.008 33.1829 129.363 33.1829 128.719 33.1829C128.676 33.1829 127.947 33.1829 127.64 33.1394C126.893 33.0336 125.781 32.6398 125.09 32.2488C124.707 32.0315 123.709 31.054 123.594 30.6196C123.249 30.0765 123.057 29.0121 123.057 27.8825V15.8165H118.991V11.2547H123.057V3.65173H127.752V11.2547Z" fill="#10239E"/>
<path fill-rule="evenodd" clip-rule="evenodd" d="M98.7373 15.8165H101.96V32.6615H107.115V15.8165H110.936L110.936 11.2547H107.115L107.115 10.8637C107.115 9.95138 107.299 9.08496 107.667 8.69395C108.036 8.30294 108.68 8.08571 109.601 8.08571C110.429 8.08571 111.212 8.12916 111.994 8.21605V3.65174L110.245 3.65173L108.519 3.65174C106.332 3.65174 104.606 4.70418 103.571 5.71541C102.236 7.01878 101.96 8.51766 101.96 10.4727L101.959 11.2547H98.7373L98.7373 15.8165ZM117.61 17.7716H112.593V32.6615H117.61V17.7716Z" fill="#10239E"/>
<path d="M117.61 13.5791C117.61 14.9025 116.517 15.9754 115.194 15.9754C113.87 15.9754 112.777 14.9025 112.777 13.5791C112.777 12.2557 113.87 11.1829 115.194 11.1829C116.517 11.1829 117.61 12.2557 117.61 13.5791Z" fill="#40A9FF"/>
</svg>
